<?xml version="1.0" encoding="UTF-8" standalone="no"?>
<!-- Created with Inkscape (http://www.inkscape.org/) -->

<svg
   xmlns:dc="http://purl.org/dc/elements/1.1/"
   xmlns:cc="http://creativecommons.org/ns#"
   xmlns:rdf="http://www.w3.org/1999/02/22-rdf-syntax-ns#"
   xmlns:svg="http://www.w3.org/2000/svg"
   xmlns="http://www.w3.org/2000/svg"
   xmlns:sodipodi="http://sodipodi.sourceforge.net/DTD/sodipodi-0.dtd"
   xmlns:inkscape="http://www.inkscape.org/namespaces/inkscape"
   width="144"
   height="144"
   viewBox="0 0 38.099999 38.100001"
   version="1.1"
   id="svg8"
   sodipodi:docname="docs.svg"
   inkscape:version="0.92.3 (2405546, 2018-03-11)"
   inkscape:export-filename="C:\Users\liamr\Documents\GitHub\WebIDE\img\docs.png"
   inkscape:export-xdpi="500"
   inkscape:export-ydpi="500">
  <defs
     id="defs2">
    <inkscape:path-effect
       effect="simplify"
       id="path-effect4631"
       is_visible="true"
       steps="1"
       threshold="0.0168421"
       smooth_angles="360"
       helper_size="0"
       simplify_individual_paths="false"
       simplify_just_coalesce="false"
       simplifyindividualpaths="false"
       simplifyJustCoalesce="false" />
    <inkscape:path-effect
       effect="simplify"
       id="path-effect4627"
       is_visible="true"
       steps="1"
       threshold="0.0168421"
       smooth_angles="360"
       helper_size="0"
       simplify_individual_paths="false"
       simplify_just_coalesce="false"
       simplifyindividualpaths="false"
       simplifyJustCoalesce="false" />
    <inkscape:path-effect
       effect="simplify"
       id="path-effect4623"
       is_visible="true"
       steps="1"
       threshold="0.0168421"
       smooth_angles="360"
       helper_size="0"
       simplify_individual_paths="false"
       simplify_just_coalesce="false"
       simplifyindividualpaths="false"
       simplifyJustCoalesce="false" />
    <inkscape:path-effect
       effect="simplify"
       id="path-effect4619"
       is_visible="true"
       steps="1"
       threshold="0.0168421"
       smooth_angles="360"
       helper_size="0"
       simplify_individual_paths="false"
       simplify_just_coalesce="false"
       simplifyindividualpaths="false"
       simplifyJustCoalesce="false" />
    <inkscape:path-effect
       effect="simplify"
       id="path-effect4615"
       is_visible="true"
       steps="1"
       threshold="0.0168421"
       smooth_angles="360"
       helper_size="0"
       simplify_individual_paths="false"
       simplify_just_coalesce="false"
       simplifyindividualpaths="false"
       simplifyJustCoalesce="false" />
    <inkscape:path-effect
       effect="simplify"
       id="path-effect4611"
       is_visible="true"
       steps="1"
       threshold="0.00958176"
       smooth_angles="360"
       helper_size="0"
       simplify_individual_paths="false"
       simplify_just_coalesce="false"
       simplifyindividualpaths="false"
       simplifyJustCoalesce="false" />
    <inkscape:path-effect
       effect="simplify"
       id="path-effect4607"
       is_visible="true"
       steps="1"
       threshold="0.00958176"
       smooth_angles="360"
       helper_size="0"
       simplify_individual_paths="false"
       simplify_just_coalesce="false"
       simplifyindividualpaths="false"
       simplifyJustCoalesce="false" />
    <inkscape:path-effect
       effect="simplify"
       id="path-effect4603"
       is_visible="true"
       steps="1"
       threshold="0.00958176"
       smooth_angles="360"
       helper_size="0"
       simplify_individual_paths="false"
       simplify_just_coalesce="false"
       simplifyindividualpaths="false"
       simplifyJustCoalesce="false" />
    <inkscape:path-effect
       effect="simplify"
       id="path-effect4599"
       is_visible="true"
       steps="1"
       threshold="0.00958176"
       smooth_angles="360"
       helper_size="0"
       simplify_individual_paths="false"
       simplify_just_coalesce="false"
       simplifyindividualpaths="false"
       simplifyJustCoalesce="false" />
    <clipPath
       clipPathUnits="userSpaceOnUse"
       id="clipPath4772">
      <g
         inkscape:label="Clip"
         id="g4776"
         style="fill:#e94444;fill-opacity:1"
         transform="translate(-9.9028578e-8,5.1458334e-6)">
        <path
           transform="matrix(0.16913803,0.09765189,-0.09764589,0.16912763,25.966979,232.0166)"
           style="fill:#e94444;fill-opacity:1;fill-rule:nonzero;stroke:none;stroke-width:0.26458332;stroke-opacity:1"
           d="m 44.017578,135.00977 a 9.5115473,9.5115473 0 0 0 -8.236328,4.7539 l -44.0175781,76.24024 a 9.5115473,9.5115473 0 0 0 0,9.51171 L 35.78125,301.75586 a 9.5115473,9.5115473 0 0 0 8.236328,4.75391 h 88.035152 a 9.5115473,9.5115473 0 0 0 8.23633,-4.75391 l 44.01758,-76.24024 a 9.5115473,9.5115473 0 0 0 0,-9.51171 l -44.01758,-76.24024 a 9.5115473,9.5115473 0 0 0 -8.23633,-4.7539 z"
           id="path4774"
           inkscape:connector-curvature="0" />
      </g>
    </clipPath>
    <clipPath
       clipPathUnits="userSpaceOnUse"
       id="clipPath4786">
      <g
         inkscape:label="Clip"
         id="g4790"
         style="fill:#e94444;fill-opacity:1"
         transform="translate(-9.9028578e-8,5.1458334e-6)">
        <path
           transform="matrix(0.16913803,0.09765189,-0.09764589,0.16912763,25.966979,232.0166)"
           style="fill:#e94444;fill-opacity:1;fill-rule:nonzero;stroke:none;stroke-width:0.26458332;stroke-opacity:1"
           d="m 44.017578,135.00977 a 9.5115473,9.5115473 0 0 0 -8.236328,4.7539 l -44.0175781,76.24024 a 9.5115473,9.5115473 0 0 0 0,9.51171 L 35.78125,301.75586 a 9.5115473,9.5115473 0 0 0 8.236328,4.75391 h 88.035152 a 9.5115473,9.5115473 0 0 0 8.23633,-4.75391 l 44.01758,-76.24024 a 9.5115473,9.5115473 0 0 0 0,-9.51171 l -44.01758,-76.24024 a 9.5115473,9.5115473 0 0 0 -8.23633,-4.7539 z"
           id="path4788"
           inkscape:connector-curvature="0" />
      </g>
    </clipPath>
    <clipPath
       clipPathUnits="userSpaceOnUse"
       id="clipPath4800">
      <g
         inkscape:label="Clip"
         id="g4804"
         style="fill:#e94444;fill-opacity:1"
         transform="translate(-9.9028575e-8,5.1458334e-6)">
        <path
           transform="matrix(0.16913803,0.09765189,-0.09764589,0.16912763,25.966979,232.0166)"
           style="fill:#e94444;fill-opacity:1;fill-rule:nonzero;stroke:none;stroke-width:0.26458332;stroke-opacity:1"
           d="m 44.017578,135.00977 a 9.5115473,9.5115473 0 0 0 -8.236328,4.7539 l -44.0175781,76.24024 a 9.5115473,9.5115473 0 0 0 0,9.51171 L 35.78125,301.75586 a 9.5115473,9.5115473 0 0 0 8.236328,4.75391 h 88.035152 a 9.5115473,9.5115473 0 0 0 8.23633,-4.75391 l 44.01758,-76.24024 a 9.5115473,9.5115473 0 0 0 0,-9.51171 l -44.01758,-76.24024 a 9.5115473,9.5115473 0 0 0 -8.23633,-4.7539 z"
           id="path4802"
           inkscape:connector-curvature="0" />
      </g>
    </clipPath>
    <clipPath
       clipPathUnits="userSpaceOnUse"
       id="clipPath4814">
      <g
         inkscape:label="Clip"
         id="g4818"
         style="fill:#e94444;fill-opacity:1"
         transform="translate(-9.9028578e-8,5.1458334e-6)">
        <path
           transform="matrix(0.16913803,0.09765189,-0.09764589,0.16912763,25.966979,232.0166)"
           style="fill:#e94444;fill-opacity:1;fill-rule:nonzero;stroke:none;stroke-width:0.26458332;stroke-opacity:1"
           d="m 44.017578,135.00977 a 9.5115473,9.5115473 0 0 0 -8.236328,4.7539 l -44.0175781,76.24024 a 9.5115473,9.5115473 0 0 0 0,9.51171 L 35.78125,301.75586 a 9.5115473,9.5115473 0 0 0 8.236328,4.75391 h 88.035152 a 9.5115473,9.5115473 0 0 0 8.23633,-4.75391 l 44.01758,-76.24024 a 9.5115473,9.5115473 0 0 0 0,-9.51171 l -44.01758,-76.24024 a 9.5115473,9.5115473 0 0 0 -8.23633,-4.7539 z"
           id="path4816"
           inkscape:connector-curvature="0" />
      </g>
    </clipPath>
    <clipPath
       clipPathUnits="userSpaceOnUse"
       id="clipPath4943">
      <g
         transform="translate(39.502857,-0.13229189)"
         style="fill:#e94444;fill-opacity:1"
         id="g4947"
         inkscape:label="Clip">
        <path
           inkscape:connector-curvature="0"
           id="path4945"
           d="m 44.017578,135.00977 a 9.5115473,9.5115473 0 0 0 -8.236328,4.7539 l -44.0175781,76.24024 a 9.5115473,9.5115473 0 0 0 0,9.51171 L 35.78125,301.75586 a 9.5115473,9.5115473 0 0 0 8.236328,4.75391 h 88.035152 a 9.5115473,9.5115473 0 0 0 8.23633,-4.75391 l 44.01758,-76.24024 a 9.5115473,9.5115473 0 0 0 0,-9.51171 l -44.01758,-76.24024 a 9.5115473,9.5115473 0 0 0 -8.23633,-4.7539 z"
           style="fill:#e94444;fill-opacity:1;fill-rule:nonzero;stroke:none;stroke-width:0.26458332;stroke-opacity:1"
           transform="matrix(0.16913803,0.09765189,-0.09764589,0.16912763,25.966979,232.0166)" />
      </g>
    </clipPath>
  </defs>
  <sodipodi:namedview
     id="base"
     pagecolor="#ffffff"
     bordercolor="#666666"
     borderopacity="1.0"
     inkscape:pageopacity="0.0"
     inkscape:pageshadow="2"
     inkscape:zoom="4"
     inkscape:cx="13.635901"
     inkscape:cy="70.12884"
     inkscape:document-units="mm"
     inkscape:current-layer="layer1"
     showgrid="false"
     units="px"
     inkscape:window-width="1920"
     inkscape:window-height="1017"
     inkscape:window-x="-8"
     inkscape:window-y="-8"
     inkscape:window-maximized="1" />
  <metadata
     id="metadata5">
    <rdf:RDF>
      <cc:Work
         rdf:about="">
        <dc:format>image/svg+xml</dc:format>
        <dc:type
           rdf:resource="http://purl.org/dc/dcmitype/StillImage" />
        <dc:title></dc:title>
      </cc:Work>
    </rdf:RDF>
  </metadata>
  <g
     inkscape:label="Layer 1"
     inkscape:groupmode="layer"
     id="layer1"
     transform="translate(0,-258.89998)"
     style="display:inline">
    <g
       inkscape:groupmode="layer"
       id="layer2"
       inkscape:label="Layer 2"
       style="display:inline" />
    <g
       id="g4900"
       transform="translate(-39.502858,0.13229704)"
       clip-path="url(#clipPath4943)"
       mask="none">
      <g
         id="g4906">
        <path
           transform="translate(39.502858,-0.13229704)"
           inkscape:connector-curvature="0"
           id="rect4663-4"
           d="m 0,286.87967 h 38.099998 v 10.12031 H 0 Z"
           style="fill:#0c3eba;fill-opacity:1;fill-rule:nonzero;stroke:none;stroke-width:0.27272624;stroke-opacity:1"
           clip-path="none" />
        <path
           transform="translate(39.502858,-0.13229704)"
           inkscape:connector-curvature="0"
           id="rect4663-3-9"
           d="m 0,277.94998 h 38.099998 v 8.92969 H 0 Z"
           style="fill:#1654d0;fill-opacity:1;fill-rule:nonzero;stroke:none;stroke-width:0.25618175;stroke-opacity:1"
           clip-path="none" />
        <path
           transform="translate(39.502858,-0.13229704)"
           inkscape:connector-curvature="0"
           id="rect4663-3-3-0"
           d="m 0,269.0203 h 38.099998 v 8.92969 H 0 Z"
           style="fill:#156fe1;fill-opacity:1;fill-rule:nonzero;stroke:none;stroke-width:0.25618169;stroke-opacity:1"
           clip-path="none" />
        <path
           inkscape:connector-curvature="0"
           id="rect4663-3-2-7"
           d="M 0,258.89999 H 38.099998 V 269.0203 H 0 Z"
           style="fill:#339af3;fill-opacity:1;fill-rule:nonzero;stroke:none;stroke-width:0.27272621;stroke-opacity:1"
           clip-path="none"
           transform="translate(39.502858,-0.13229704)" />
      </g>
    </g>
    <g
       style="display:inline"
       id="g4925"
       transform="translate(-2.5532291)">
      <rect
         ry="1.5273683"
         y="275.70105"
         x="2.5532291"
         height="16.801023"
         width="16.801043"
         id="rect4820"
         style="fill:#072d8a;fill-opacity:1;fill-rule:nonzero;stroke:none;stroke-width:0.3215512;stroke-opacity:1" />
      <text
         id="text4824"
         y="289.21741"
         x="5.7008343"
         style="font-style:normal;font-variant:normal;font-weight:normal;font-stretch:normal;font-size:14.10881519px;line-height:1.25;font-family:'Segoe Script';-inkscape-font-specification:'Segoe Script, Normal';font-variant-ligatures:normal;font-variant-caps:normal;font-variant-numeric:normal;font-feature-settings:normal;text-align:start;letter-spacing:0px;word-spacing:0px;writing-mode:lr-tb;text-anchor:start;fill:#000000;fill-opacity:1;stroke:none;stroke-width:0.52908051"
         xml:space="preserve"><tspan
           style="font-style:normal;font-variant:normal;font-weight:bold;font-stretch:normal;font-family:Arial;-inkscape-font-specification:Arial;fill:#ffffff;fill-opacity:1;stroke-width:0.52908051"
           y="289.21741"
           x="5.7008343"
           id="tspan4822"
           sodipodi:role="line">D</tspan></text>
    </g>
  </g>
  <g
     inkscape:groupmode="layer"
     id="layer3"
     inkscape:label="Layer 3" />
</svg>
